<mxfile host="Electron" agent="Mozilla/5.0 (Windows NT 10.0; Win64; x64) AppleWebKit/537.36 (KHTML, like Gecko) draw.io/28.1.2 Chrome/138.0.7204.243 Electron/37.4.0 Safari/537.36" version="28.1.2">
  <diagram name="Page-1" id="lG-YKMJxwCWBhoUh6BFL">
    <mxGraphModel dx="1042" dy="626" grid="1" gridSize="9" guides="1" tooltips="1" connect="1" arrows="1" fold="1" page="1" pageScale="1" pageWidth="850" pageHeight="1100" background="none" backgroundImage="{&quot;src&quot;:&quot;data:image/jpeg;base64,/9j/4AAQSkZJRgABAQAAAQABAAD/4QsXaHR0cDovL25zLmFkb2JlLmNvbS94YXAvMS4wLwA8P3hwYWNrZXQgYmVnaW49J++7vycgaWQ9J1c1TTBNcENlaGlIenJlU3pOVGN6a2M5ZCc/Pgo8eDp4bXBtZXRhIHhtbG5zOng9J2Fkb2JlOm5zOm1ldGEvJz4KPHJkZjpSREYgeG1sbnM6cmRmPSdodHRwOi8vd3d3LnczLm9yZy8xOTk5LzAyLzIyLXJkZi1zeW50YXgtbnMjJz4KCiA8cmRmOkRlc2NyaXB0aW9uIHJkZjphYm91dD0nJwogIHhtbG5zOnBsdXM9J2h0dHA6Ly9ucy51c2VwbHVzLm9yZy9sZGYveG1wLzEuMC8nPgogIDxwbHVzOkRhdGFNaW5pbmc+aHR0cDovL25zLnVzZXBsdXMub3JnL2xkZi92b2NhYi9ETUktQUxMT1dFRDwvcGx1czpEYXRhTWluaW5nPgogPC9yZGY6RGVzY3JpcHRpb24+CjwvcmRmOlJERj4KPC94OnhtcG1ldGE+CiAgICAgICAgICAgICAgICAgICAgICAgICAgICAgICAgICAgICAgICAgICAgICAgICAgICAgICAgICAgICAgICAgICAgICAgICAgICAgICAgICAgICAgICAgICAgICAgICAgICAKICAgICAgICAgICAgICAgICAgICAgICAgICAgICAgICAgICAgICAgICAgICAgICAgICAgICAgICAgICAgICAgICAgICAgICAgICAgICAgICAgICAgICAgICAgICAgICAgICAgIAogICAgICAgICAgICAgICAgICAgICAgICAgICAgICAgICAgICAgICAgICAgICAgICAgICAgICAgICAgICAgICAgICAgICAgICAgICAgICAgICAgICAgICAgICAgICAgICAgICAgCiAgICAgICAgICAgICAgICAgICAgICAgICAgICAgICAgICAgICAgICAgICAgICAgICAgICAgICAgICAgICAgICAgICAgICAgICAgICAgICAgICAgICAgICAgICAgICAgICAgICAKICAgICAgICAgICAgICAgICAgICAgICAgICAgICAgICAgICAgICAgICAgICAgICAgICAgICAgICAgICAgICAgICAgICAgICAgICAgICAgICAgICAgICAgICAgICAgICAgICAgIAogICAgICAgICAgICAgICAgICAgICAgICAgICAgICAgICAgICAgICAgICAgICAgICAgICAgICAgICAgICAgICAgICAgICAgICAgICAgICAgICAgICAgICAgICAgICAgICAgICAgCiAgICAgICAgICAgICAgICAgICAgICAgICAgICAgICAgICAgICAgICAgICAgICAgICAgICAgICAgICAgICAgICAgICAgICAgICAgICAgICAgICAgICAgICAgICAgICAgICAgICAKICAgICAgICAgICAgICAgICAgICAgICAgICAgICAgICAgICAgICAgICAgICAgICAgICAgICAgICAgICAgICAgICAgICAgICAgICAgICAgICAgICAgICAgICAgICAgICAgICAgIAogICAgICAgICAgICAgICAgICAgICAgICAgICAgICAgICAgICAgICAgICAgICAgICAgICAgICAgICAgICAgICAgICAgICAgICAgICAgICAgICAgICAgICAgICAgICAgICAgICAgCiAgICAgICAgICAgICAgICAgICAgICAgICAgICAgICAgICAgICAgICAgICAgICAgICAgICAgICAgICAgICAgICAgICAgICAgICAgICAgICAgICAgICAgICAgICAgICAgICAgICAKICAgICAgICAgICAgICAgICAgICAgICAgICAgICAgICAgICAgICAgICAgICAgICAgICAgICAgICAgICAgICAgICAgICAgICAgICAgICAgICAgICAgICAgICAgICAgICAgICAgIAogICAgICAgICAgICAgICAgICAgICAgICAgICAgICAgICAgICAgICAgICAgICAgICAgICAgICAgICAgICAgICAgICAgICAgICAgICAgICAgICAgICAgICAgICAgICAgICAgICAgCiAgICAgICAgICAgICAgICAgICAgICAgICAgICAgICAgICAgICAgICAgICAgICAgICAgICAgICAgICAgICAgICAgICAgICAgICAgICAgICAgICAgICAgICAgICAgICAgICAgICAKICAgICAgICAgICAgICAgICAgICAgICAgICAgICAgICAgICAgICAgICAgICAgICAgICAgICAgICAgICAgICAgICAgICAgICAgICAgICAgICAgICAgICAgICAgICAgICAgICAgIAogICAgICAgICAgICAgICAgICAgICAgICAgICAgICAgICAgICAgICAgICAgICAgICAgICAgICAgICAgICAgICAgICAgICAgICAgICAgICAgICAgICAgICAgICAgICAgICAgICAgCiAgICAgICAgICAgICAgICAgICAgICAgICAgICAgICAgICAgICAgICAgICAgICAgICAgICAgICAgICAgICAgICAgICAgICAgICAgICAgICAgICAgICAgICAgICAgICAgICAgICAKICAgICAgICAgICAgICAgICAgICAgICAgICAgICAgICAgICAgICAgICAgICAgICAgICAgICAgICAgICAgICAgICAgICAgICAgICAgICAgICAgICAgICAgICAgICAgICAgICAgIAogICAgICAgICAgICAgICAgICAgICAgICAgICAgICAgICAgICAgICAgICAgICAgICAgICAgICAgICAgICAgICAgICAgICAgICAgICAgICAgICAgICAgICAgICAgICAgICAgICAgCiAgICAgICAgICAgICAgICAgICAgICAgICAgICAgICAgICAgICAgICAgICAgICAgICAgICAgICAgICAgICAgICAgICAgICAgICAgICAgICAgICAgICAgICAgICAgICAgICAgICAKICAgICAgICAgICAgICAgICAgICAgICAgICAgICAgICAgICAgICAgICAgICAgICAgICAgICAgICAgICAgICAgICAgICAgICAgICAgICAgICAgICAgICAgICAgICAgICAgICAgIAogICAgICAgICAgICAgICAgICAgICAgICAgICAgICAgICAgICAgICAgICAgICAgICAgICAgICAgICAgICAgICAgICAgICAgICAgICAgICAgICAgICAgICAgICAgICAgICAgICAgCiAgICAgICAgICAgICAgICAgICAgICAgICAgICAgICAgICAgICAgICAgICAgICAgICAgICAgICAgICAgICAgICAgICAgICAgICAgICAgICAgICAgICAgICAgICAgICAgICAgICAKICAgICAgICAgICAgICAgICAgICAgICAgICAgICAgICAgICAgICAgICAgICAgICAgICAgICAgICAgICAgICAgICAgICAgICAgICAgICAgICAgICAgICAgICAgICAgICAgICAgIAogICAgICAgICAgICAgICAgICAgICAgICAgICAgICAgICAgICAgICAgICAgICAgICAgICAgICAgICAgICAgICAgICAgICAgICAgICAgICAgICAgICAgICAgICAgICAgICAgICAgCjw/eHBhY2tldCBlbmQ9J3cnPz7/2wCEAAgICAgJCAkKCgkNDgwODRMSEBASEx0VFhUWFR0sHCAcHCAcLCcvJiQmLydGNzExN0ZRREBEUWJYWGJ8dnyiotkBCAgICAkICQoKCQ0ODA4NExIQEBITHRUWFRYVHSwcIBwcIBwsJy8mJCYvJ0Y3MTE3RlFEQERRYlhYYnx2fKKi2f/CABEIBkAKAAMBIgACEQEDEQH/xAAXAAEBAQEAAAAAAAAAAAAAAAAAAQYF/9oACAEBAAAAAOLRSgKKUUCiiiigKKAoooBRRQChQCihQoUKAFCgoAUCgAUBQCgAAAAAAAAAAAAAAAAAzahSgKKUUCiiiigKKBRQoCihQCigFChQoUUAFCgoAoFAAUCgFAAAAAAAAAAAAAAAAADNiiigKUUUFFCiigKKBRRQCihQFCgFChRQoUAKCgoAoKAAoCgKAAAAAAAAAAAAAAAAAM2CiigUUUUFFCiigKUBRRQCiigFCgFCihQoUAKChQAUKAAoBQKAAAAAAAAAAAAAAAAAzYCiigUUUoFFFClAUUBRRQCiigFCgFFChQoUAKChQAoKAAUCgKAAAAAAAAAAAAAAAADNKAopQFFKKBRRRRQFFAUUUAoooBQoBRQoUKFAChQUAKBQAKAoBQAAAAAAAAAAAAAAADNCgUKUBRSigUUUUUBRQKKFAUUKAUUAoUKFCigAoUFAFAoACgUAoAAAAAAAAAAAAAAADMqKBRRQFKKKCihRRQFFAoooBRQoChQChQooKKAFBQUAUFAAUAoFAAAAAAAAAAAAAAAAzIooFFFAooooKKFFFAUoCiigFFFAKFAKFFChQoAUFCgAoUABQCgUAAAAAAAAAAAAAAAMyClAUUUCiilAoooooCigKKKAUUUAoUAooUKFCgBQoKAFAoACgUBQAAAAAAAAAAAAAADMUClAUUoCilFAoooooCigKKKAUUUAoUAooUKFCgBQoKAFAoAFAUAoAAAAAAAAAAAAAAMwoFFAoUoCilFAoooooCigUUKAooUAooBQoUKFFABQoKAKBQAFAoBQAAAAAAAAAAAAAAzAoFFAoooClFFApQoooCigUUUAooUBQoBQoUUKFACgoKAKCgAKAoCgAAAAAAAAAAAAADLqKBRQKKKBRRRQUUKKKApQFFFAKKKAUKAUKKFChQAoKFABQoACgFAoAAAAAAAAAAAAADLiigUoCiigUUUoFFFClAUUBRRQCiigFCgFFChQoUAKChQAoFAAUCgKAAAAAAAAAAAAADLKKKBSgKKUBRSigUUUUUBRQFFFAKKKAUKAUUKFChQAoUFACgUACgKAUAAAAAAAAAAAAAywpRQKKBQpQFFKKBRRRRQFFAooUBRQoBRQChQoUKKAChQUAUCgAKBQCgAAAAAAAAAAAAMsFFFAooFFFAUoooFKFFFAUUCiigFFCgKFAKFCigooAUFBQBQUABQFAUAAAAAAAAAAAADLAUUUCigUUUCiiigooUUUBSgKKKAUUUAoUAoUUKFCgBQUKAChQAFAKBQAAAAAAAAAAAAyqgUUUClAUUUCiilAoooooCigKKKAUUUAoUAooUKFCgBQoKAFAoACgUBQAAAAAAAAAAADKlAUUUClAUUoCilFAoooooCigKKKAUUUAoUAooUKFCgBQoKAFAoAFAUAoAAAAAAAAAAAMopQFKKBRQKFKAopRQKKKKKAooFFCgKFFAKKAUKFChRQAUKCgCgUABQKAUAAAAAAAAAAAMoUUCiigUUCiigKUUUClCiigKKBRRQCihQFCgFChRQoUAKCgoAoKAAoCgKAAAAAAAAAAAMmpRQKKKBRQKKKBRRRQUUKKKApQFFFAKKKAUKAUKKFChQAoKFABQoACgFAoAAAAAAAAAADJlFFAoooFKAoooFFFKBRRQpQFFAUUUAoooBQoBRQoUKFACgoUAKBQAFAoCgAAAAAAAAAAyYUUoCiigUoCilAUUooFFFFFAUUBRRQCiigFCgFFChQoUAKFBQAoFAAoCgFAAAAAAAAAAMmBRSgKUUCigUUUBRSigUUUUUBRQKKFAUUKAUUAoUKFCigAoUFAFAoACgUAoAAAAAAAAADJUBSigUUUCigUUUBSiigUoUUUBRQKKKAUUKAoUAoUKKCigBQUFAFBQAFAUBQAAAAAAAAAMkUBSigUUUCigUUUCiiigooUUUBSgKKKAUUUAoUAoUUKFCgBQUKAChQAFAKBQAAAAAAAAAyNFAoooFFFApQFFFAoopQKKKKKAooCiigFFFAKFAKKFChQoAUKCgBQKAAoFAUAAAAAAAAAyJRQKKUBRRQKUBRSgKKUUCiiiigKKAoooChRQChQCihQoUKAFCgoAUCgAUBQCgAAAAAAAAyClKAopQFKKBRQKFKAopRQKKKKKAooFFCgKKFAKKAUKFChRQAUKCgCgUABQKAUAAAAAAAAMgKUoClFAoooFFAoooFFFFApQoooCigUUUAooUBQoBQoUUKFACgoKAKCgAKAoCgAAAAAAADHqUUoClFAoooFFAoooFFFFBRQoooClAUUUAoooBQoBQooUKFACgoUAFCgAKAUCgAAAAAAAMeUUUoFFFAoooFKAoooFFFKBRRQpQFFAUUUAoooBQoBRQoUKFACgoUAKBQAFAoCgAAAAAAAx1FFKKBRSgKKKBSgKKUBRSigUUUUUBRQFFFAKKKAUKAUUKFChQAoUFACgUACgKAUAAAAAAAxxRRSlAUUoClFAooFClAUUooWUUUUUBRQKKFAUUKAUUAoUKFCigAoUFAFAoACgUAoAAAAAADG0UUUpQFKKBRRQKKBRRQFKKKCihRRQFFAoooBRQoChQChQooKKAFBQUAUFAAUBQFAAAAAAAxpRRSilAoooFFFApQFFFAooooKKFFFAUoCiigFFFAKFAKFFChQoAUFCgAoUABQCgUAAAAAAMaFFKKUUCiigUUUClAUUUCiilAoooooCigKKKAUUUAoUAooUKFCgBQoKAFAoACgUBQAAAAADGgooopRQKKUBRRQKUBRSgKKUUCiiiigKKAoooBRRQChQCihQoUKAFCgoAUFAAUBQCgAAAAAxoCiiilKAopQFKKBRQKFKAopRQKKKKKAooFFCgKKFAKKAUKFChRQAUKCgCgUABQKAUAAAAAMYoCiiilKApRQKKKBRQKKKApRRQKUKKKAooFFFAKKFAUKAUKFFChQAoKCgCgoACgKAoAAAAAxgoCiilFKBRRQKKKBRQKKKBRRRQUUKKKApQFFFAKKKAUKAUKKFChQAoKFABQoACgFAoAAAADF0KBQpRRSgUUUCiigUoCiigUUUoFFFClAUUBRRQCiigFCgFFChQoUAKChQAoKAAUCgKAAAADFlFAUUUUooFFKAoooFKAopQFFKKBRRRRQFFAUUUAoooBQoBRQoUKFAChQUAKBQAKAoBQAAADFhRQFFFFKUBRSgKUUCigUKUBRSigUUUUUBRQKKFAUUKAUUAoUKFCigAoUFAFAoACgUAoAAADFgUUBRRRSlAUooFFFAooFFFAooooKKFFFAUUCiigFFCgKFAKFCigooAUFBQBQUABQFAUAAADFUBRQFFFKKUCiigUUUCigUUUCiiigooUUUBSgKKKAUUUAoUAoUUKFCgBQUKAChQAFAKBQAAAxRQKKAUUopRQKKKBRRQKUBRRQKKKUCiiiigKKAoooBRRQChQCihQoUKAFCgoAUCgAKBQFAAAMTRQKKAooopRQKKUBRRQKUBRSgKKUUCiiiigKKAoooBRRQChQCihQoUKAFCgoAUCgAUBQCgAAxJSgKKAooopSgKKUBSigUUChSgKKUUCiiiigKKBRQoCihQCigFChQoUUAFCgoAoFAAUCgFAADEiigKKAooopSgKUUCiigUUCiigKUUUClCiigKKBRRQCihQFCgFChRQoUAKCgoAoKAAoCgKAAMQoooCigKKKUUoFFFAoooFFAoooFFFFBRQoooClAUUUAoooBQoBQooUKFACgoUAFCgAKAUCgAMQKKKBQoFClFFKBRRQKKKBSgKKKBRRSgUUUKUBRQFFFAKKKAUKAUUKFChQAoKFACgUABQKAoAMQCiigUUBQpRSigUUoCiigUoCilAUUooFFFFFAUUBRRQCiigFCgFFChQoUAKFBQAoFAAoCgFAMQAopQFFAUUUUpQFFKApRQKKBQpQFFKKBRRRRQFFAooUBRQoBRQChQoUKKAChQUAUCgAKBQCgMOoFFFAUUBRRRSlAUooFFFAooFFFAUoooFKFFFAUUCiigFFCgKFAKFCigooAUFBQBQUABQFAUDDigUUUBRQFFFKKUCiigUUUCigUUUCiiigooUUUBSgKKKAUUUAoUAoUUKFCgBQUKAChQAFAKBQw1CgUUUCigFFKKUUCiigUUUClAUUUCiilAoooooCigKKKAUUUAoUAooUKFCgBQoKAFAoACgUBTDFFAUUoCigKKKKUUCilAUUUClAUUoCilFAoooooCigKKKAUUUAoUAooUKFCgBQoKAKAoAFAUAw1FFAUUoCigKKKKUoCilAUooFFAoUoCilFAoooooCigUUKAooUAooBQoUKFFABQoKAKBQAFAoDDFFFAoooCigKKKKUoClFAoooFFAoooClFFApQoooCigUUUAooUBQoBQoUUKFACgoKAKCgAKAoMMKFFAoooCigKKKUUoFFFAoooFFAoooFFFFBRQoooClAUUUAoooBQoBQooUKFACgoUAFCgAKAUwwKKFAoooFCgUKUUUoFFFAoooFKAoooFFFKBRRQpQFFAUUUAoooBQoBRQoUKFACgoUAKBQAFArDAKKFAoooFFAUUUUooFFKAoooKKAopQFFKKBRRRRQFFAoUUAoooBQoBRQoUKFAChQUAKBQAKAwygKKKAopQFFAUUUUpQFFKApRQKKBQpQFKKKBRRRRQFFAooUBRQoBRQChQoUKKAChQUAUCgAKDDFAKKKBRRQFFAUUUUpQFKKBRRQKKBRRQFKKKBShRRQFFAoooBRQoChQChQooKKAFBQUAUFAAUMLRQFCigUUUBRQFFFKKUCiigUUUCigUUUCiiigooUUUBSgKKKAUUUAoUAoUUKFCgBQUKAChQAFMKoUBRQoFFFAooBRSilFAoooFFFApQFFFAoopQKKKKKAooCiigFFFAKFAKKFChQoAUKCgBQKAAwtKFAUUKBRRQKKAooopRQKKUBRRQUUBRSgKKUUCiiiigKKAoooBRRQChQCihQoUKAFCgoAUCgAwqihQFFFAUUoCigKKKKUoCilAUooFFAoUoCilFAoooooCigUUKAooUAooBQoUKFFABQoKAKBQAwooooBRRQKKKAooCiiilKApRQKKKBRQKKKApRRQKUKKKAooFFFAKKFAUKAUKFFChQAoKCgCgoAwoKUKAoUUCiigKKAoopRSgUUUCiigUUCiigUUUUFFCiigKUBRRQCiigFCgFCihQoUAKChQAUKAwoCiigKKFAoooFCgUKUUUoFFFAoooFKAoooFFFKBRRQpQFFAUUUAoooBQoBRQoUKFACgoUAKBQwigUUKAooUCiigUUBRRRSigUUoCiigooCilAUUooFFFFFAUUBRRQCiigFCgFFChQoUAKFBQAoFMIKBRQoCiigKKUBRQFFFFKUBRSgKUUCigUKUBRSigUUUUUBRQKKFAUUKAUUAoUKFCigAoUFAFArB0UBRRQCiigUUUBRQKFFFKUBSigUUUCigUUUCiiigUoUUUBRQKKKAUUKAoUAoUKKCigBQUFAFBcGUUBShQFCigUUUBRQFFFKKUCiigUUUCigUUUCiiigooUUUBSgKKKAUUUAoUAoUUKFCgBQUKACjCBRQFKFAUUKBRRQKKAUUopRQKKKBRRQKUBRRQKKKUCiiiigKKAoooBRRQChQCihQoUKAFCgoAUwaihQKKFAUUKBRSgKKAooopRQKKUBRRQUUBRSgKKUUCiiiigKKAoooBRRQChQCihQoUKAFCgoArBiihQKKFAUUUBRSgKKAooopSgKKUBSigUUChSgKUUUCiiiigKKBRQoCihQCigFChQoUUAFCgoAwdCiigKKKAUUUCiigKKAooopSgKUUCiigUUCiigKUUUFFCiigKKBRRQCihQFCgFChRQoUAKCgoDBlFCigKUKAoUUCiigKKAoopRSgUUUCiigUUCiigUUUUFFCiigKUBRRQCiigFCgFCihQoUAKChQMGFFCigKKKAooUCiigUKBQpRRSgUUUCiigUoCiigUUUoFFFClAUUBRRQCiigFCgFFChQoUAKChQwShRRQoFFCgKKFAoooFFAUUUUooFFKAoooKKBQpQFFKKBRRRRQFFAUUUAoooBQoBRQoUKFAChQUwQooUUKBRQoCiigKKUBRQFFFFKUBRSgKUUCigUKUBRSigUUUUUBRQKKFAUUKAUUAoUKFCigAoUFwQKKFFFAUUUAoooFFFAUUBRRRSlAUooFFFAooFFFAUoooKKFFFAUUCiigFFCgKFAKFCigooAUFDBgUKKFFAUUUBQooFFFAUUBRRSilAoooFFFAooFFFAooooKKFFFAUoCiigFFFAKFAKFFChQoAUFMGAUKKFFAUoUBRQoFFFAooBRSilFAoooFFFApQFFFAoopQKKKKKAooCiigFFFAKFAKKFChQoAUKwVAFFCihQFKFAUUKBRRQKKAooopRQKKUBRRQUUBRSgKKUUCiiiigKKAoooBRRQChQCihQoUKAFDBlAFFCihQKKFAUUUBRSgKKAooopSgKKUBSigUUChSgKKUUCiiiigKKBRQoCihQCigFChQoUUAFMGKAFFCiigKKKAUUUCiigKKAooopSgKUUCiigUUCiigKUUUFFCiigKKBRRQCihQFCgFChRQoUAKwVCgChRQooClCgKFFAoooCigKKKUUoFFFAoooFFAoooFFFFBRQoooClAUUUAoooBQoBQooUKFADBlCgChRQooCiigKKFAoooFCgUKUUUoFFFAoooFKAoooFFFKBRRQpQFFAUUUAoooBQoBRQoUKFAMGFCgCihRQoFFCgKKFAoooFFAUUUUooFFKAoooKKAopQFFKKBRRRRQFFAUUUAoooBQoBRQoUKFAwShQoAooUUKBRQoCiigKKUBRQFFFFKUBRSgUUUCigUKUBRSigUUUUUBRQKKFAUUKAUUAoUKFCigwQoUUAKKFFFAUUUAoooFFFAUUBRRRSlAUooFFFAooFFFAooooFKFFFAUUCiigFFCgKFAKFCigoowQKKFAFCihRQFFFAUKKBRRQFFAUUUopQKKKBRRQKKBRRQKKKKCihRRQFKAoooBRRQChQChRQoUKwQFChQBQooUUBShQFFCgUUUCigFFKKUUCiigUUUClAUUUCiilAoooooCigKKKAUUUAoUAooUKFDBgFChQBQoooUCihQFFCgUUUCigKKKKUUCilAUUUFFAUUoCilFAoooooCigKKKAoUUAoUAooUKFMFQBQoUAUUKKFAooUBRRQFFKAooCiiilKAopQFKKBRQKFKAopRQKKKKKAooFFCgKKFAKKAUKFChcEUAUKKAFFCiigKKKAUUUCiigKKAooopSgKUUCiigUUCiigKUUUFFCiigKKBRRQCihQFCgFChRQwYUAUUKAKFFCigKUKAoUUCiigKKAoopRSgUUUCiigUUCiigUUUUFFCiigKUBRRQCiigFCgFCihTBKKAKFCgChRQooCiigKKFAoooFCgUKUUUoFFFAoooFKAoooFFFKBRRQpQFFAUUUAoooBQoBRQoMGKKAKFCgChRRQoFFCgKKFAoooFFAUUUUooFFKAoooKKAopQFFKKBRRRRQFFAUUUAoooBQoBRQowYUKAKFCgCihRQoFFCgKKKAopQFFAUUUUpQFFKApRQKKBQpQFFKKBRRRRQFFAooUBRQoBRQChQrBKFCgChRQAooUUUBRRQCiigUUUBRQFFFFKUBSigUUUCigUUUCiiigooUUUBRQKKKAUUKAUUAoUMGKFCgCihQBQooUUBRRQFCigUUUBRQFFFKKUCiigUUUCigUUUCiiigooUUUBSgKKKAUUUAoUAoUwYKFFAFChQBQooUUBShQFFCgUUUCigFFKKUUCiigUUUClAUUUCiilAoooooCigKKKAUUUAoUAorBgUFFAFChQBQoooUCihQFFCgUUUCigKKKKUUCilAUUUFFAUUoCilFAoooooCigKKKAoUUAoUAowgBQoUAUKFAFFCihQKKFAUUUBRSgKKAooopSgKKUBSigUUChSgKUUUCiiiigKKBRQoCihQCigFMIAFChQBQooAUUKKKAoooBRRQKKKAooCiiilKApRQKKKBRQKKKApRRQUUKKKAooFFFAKKFAUKAMIoAUKFAFFCgChRQooClCgKFFAoooCigKKKUUoFFFAoooFFAoooFFFFBRQoooClAUUUAoooBQoDCCgBQooAoUKAKFFCigKKKAooUCiigUKBQpRRSgUUUCiigUoCiigUUUoFFFClAUUBRRQCiigFCgwgUAKCigChQoAoUUUKBRQoCihQKKKBRQFFFFKKBRSgKKKCigKKUBRSigUUUUUBRQFFFAKKKAUKMHQUAKFCgChQoAooUUKBRQoCiigKKUBRQFFFFKUBRSgKUUCigUKUBRSigUUUUUBRQKKFAUUKAUUwZQUAKFCgChRQAooUUUBRRQCiigUUUBRQFFFFKUBSigUUUCigUUUBSiigUoUUUBRQKKKAUUKAUMIFBQAoUKAKKFAFCihRQFFFAUKKBRRQFFAUUUopQKKKBRRQKKBRRQKKKKCihRRQFKAoooBRRQCjCAUFAChRQBQoUAUKKFFAUoUBRQoFFFAooBRSilFAoooFFFApQFFFAoopQKKKKKAooCiigFFFAKwgCgoAUFFAFChQBRQooUBShQFFCgUUUCigKKKKUUCilAUUUFFAUUoCilFAoooooCigKUKAUUUAwoAoKAFChQBQoUAUUKKFAooUBRRQFFKAooCiiilKAopQFKKBRQKFKApRRQKKKKKAooFFCgKFFAwoAKCgBQoUAUKKAFFCiigKKKAUUUCiigKKAooopSgKUUCiigUUCiigKUUUClCiigKKBRRQCihQwlAAoKAFCigBRQoAoUUKKApQoChRQKKKAooCiilFKBRRQKKKBRQKKKBRRRQUUKKKApQFFFAKKKMIUACgoAUKKAKFCgChRQooCiigKKFAoooFCgUKUUUoFFFAoooFKAoooFFFKBRRQpQFFAUUUAoorCBQAUFACgooAoUKAKFFFCgUUKAooUCiigUUBRRRSigUUoCiigooCilAUUooFFFFFAUUBRRQCijCgUAFBQAoUKAKFCgCihRQoFFCgKKKAopQFFAUUUUpQFFKApRQKKBQpQFKKKBRRRRQFFAooUBQrCKBQAUFAChQoAoUUAKKFFFAUUUAoooFFFAUUBRRRSlAUooFFFAooFFFAUoooKKFFFAUUCiigFDClAoAFBQAoUUAKKFAFCihRQFFFAUKKBRRQFFAUUUopQKKKBRRQKKBRRQKKKKCihRRQFKAoooBTChQKABQUAKFFAFChQBQooUUBShQFFCgUUUCigFFKKUUCiigUUUClAUUUCiilAoooooCigKKKAXCgUCgAoKAFBRQBQoUAUUKKFAUoUBRQoFFFAooCiiilFAopQFFFBRQFFKAopRQKKKKKAooFCigMKoFAoAKCgBQoUAUKFAFFCihQKKFAUUUBRSgKKAooopSgKKUBSigUUChSgKUUUCiiiigKKBRQoMKUBQKACgoAUKFAFCigBRQoooCiigFFFAoooCigKKKKUoClFAoooFFAoooClFFBRQoooCigUUUMKFAUFAAoKAFChQBRQoAoUUKKApQoChRQKKKAooCiilFKBRRQKKKBRQKKKBRRRQUUKKKApQFFFMKBQKBQAKFABQooAoUKAKFFCigKKKAooUCiigUKBQpRRSgUUUCiigUoCiigUUUoFFFClAUUBRRcKAUCgUAFBQAoKKAKFCgCihRQoFFCgKKFAoooFFAUUUUooFFKAoooKKAopQFFKKBRRRRQFFAUUwwAUCgUAFBQAoUKAKFCgCihRQoFFCgKKKAopQFFAUUUUpQFFKApRQKKBQpQFKKKBRRRRQFFAorDAAoCgUAFBQAoUKAKFFACihRRQFFFAKKKBRRQFFAUUUUpQFKKBRRQKKBRRQFKKKCihRRQFFAow4ACgKCgAUFAChQoAooUAUKKFFAUUUBQooFFFAUUBRRSilAoooFFFAooFFFAooooKKFFFAUoCsOAAKBQKABQUAKFFAFChQBQooUUBShQFFCgUUUCigFFKKUUCiigUUUCigUUUCiilAoooooCigMPQAAoFAoAKCgBQoUAUKFAFFCihQFKFAUUKBRRQKKAooopRQKKUBRRQUUBRSgKKUUCiiiigKKDDlAACgUCgAoKAFChQBQoUAUUKKFAooUBRRQFFKAooCiiilKAopQFKKBRQKFKApRRQKKKKKAoow4UAAUBQKACgoAUKFAFCigBRQoooCiigFFFAoooCigKKKKUoClFAoooFFAoooFFFFBRQoooCisOCgABQFBQAKCgBQoUAUUKAKFFCigKKKAoUUCiigKKAopRRSgUUUCiigUUCiigUUUUFFCiigKMQAoAAUCgUACgoAUKKAKFCgChRQooCiigKKFAoooFCgUKUUUoFFFAoooFKAoooFFFKBRRQpQFMQAKAAFAoFABQUAKFCgChQoAooUUKBRQoCihQKKKBRQFFFFKKBRSgKKKCigKKUBRSigUUUUUAxIAKAAFAoFABQUAKFCgChQoAooUUKBRQoCiigKKUBRQFFFFKUBRSgKUUCigUKUBSiigUUUUUDEgAKAAKAoFABQUAKFCgChRQAooUUUBRRQCiigUUUBRQFFFFKUBSigUUUCigUUUCiiigooUUUMSAAUAAKAoKABQUAKFCgCihQBQooUUBRRQFCigUUUBRQFFFKKUCiigUUUCigUUUCiiigooUUUxIAAUAAKBQKABQUAKFFAFChQBQooUUBShQFFCgUUUCigFFKKUUCiigUUUClAUUUCiilAoooorEgAAUAAKBQKACgoAUFFAFChQBRQooUBShQFFCgUUUCigKKKKUUCilAUUUFFAUUoCilFAooooxQAABQAAoFAoAKCgBQoUAUKFAFFCihQKKFAUUUBRSgKKAooopSgKKUBSigUUChSgKUUUCiiisUAAAFAAFAUCgAoKAFChQBQooAUUKKKAoooBRRQKKKAooCiiilKApRQKKKBRQKKKBRRRQUUKMWAAACgABQFBQAKCgBQoUAUUKAKFFCigKKKAoUUCiigKKAoopRSgUUUCiigUUCiigUUUUFFCsWAAAAoAAUCgUACgoAUKKAKFCgChRQooCiigKKFAoooFCgUKUUUoFFFAoooFKAoooFFFKBRQxgAAAAoAAUCgUAFBQAoKKAKFCgCihRQoClCgKKFAoooFFAUUUUooFFKAoooKKAopQFFKKBRTGAAAAAoAAUCgUAFBQAoUKAKFCgCihRQoFFCgKKKAopQFFAUUUUpQFFKApRQKKBQpQFKKKBRcYAAAAAoAAoCgUAFBQAoUKAKFFACihRRQFFFAKKKBRRQFFAUUUUpQFKKBRRQKKBRRQKKKKCjGgAAAAFAACgKCgAUFAChQoAooUAUKKFFAUUUBQooFFFAUUBRRSilAoooFFFAooFFFAooooKxoAAAAAUAAKBQKABQUAKFFAFChQBQooUUBShQFFCgUUUCigFFKKUUCiigUUUClAUUUCiilAxwAAAAAFAACgUCgAoKAFBRQBQoUAUUKKFAUoUBRRQFFFAooCiiilFAopQFFFBRQFFKAopRQxwAAAAABQAAoFAoAKCgBQoUAUKFAFFCihQKKFAUUUBRSgKKAooopSgKKUBSigUUCiigKUUUxwAAAAAAUAAUBQKACgoAUKFAFCigBRQoooCiigFFFAoooCigKKKKUoClFAoooFFAoooFFFFxwAAAAAAKAAFAUFAAoKAFChQBRQoAoUUKKAoooChRQKKKAooCiilFKBRRQKKKBRQKKKBRRTHgAAAAAAKAAFAoFAAoKAFCigChQoAoUUKKAoooCihQKKKBQoFClFKKBRRQKKKBSgKKKBRRceAAAAAAAKAAFAoFABQUAKCigChQoAooUUKBRQoCihQKKKBRQFFFFKKBRSgKKKCigKKUBRTIAAAAAAAAoAAUCgUAFBQAoUKAKFCgCihRQoFFCgKKKAopQFFAUUUUpQFFKApRQKKBQpQFKyAAAAAAAACgACgKBQAUFAChQoAoUUAKKFFFAUUUAoooFFFAUUBRRRSlAUooFFFAooFFFAoyIAAAAAAABQAAoCgoAFBQAoUKAKKFAFCihRQFFFAUKKBRRQFFAUUUopQKKKBRRQKKBRRQKyIAAAAAAAAUAAKBQKABQUAKFFAFChQBQooUUBShQFFCgUUUCigFFKKUUCiigUUUClAUUUDJAAAAAAAAAUAAKBQKACgoAUFFAFChQBRQooUBShQFFFAUUUCigKKKKUUCilAUUUFFAUUoMkAAAAAAAAAUAAKBQKACgoAUKFAFChQBRQooUCihQFFFAUUoCigKKKKUoCilAUooFFAoUoyQAAAAAAAAAUAAUBQKACgoAUKFAFCigBRQoooCiigFFFAoooCigKKKKUoClFAoooFFAoorJAAAAAAAAAAoAAUBQUACgoAUKFAKFCgChRQooCiigFFFAoooCigKKKUUoFFFAoooFFAooyYAAAAAAAAACgABQKBQAKCgBQooAoUKAKFFCigKKKAooUCiigUKBQpRSigUUUCiigUoCismAAAAAAAAAAKAAFAoFABQUAKCigChQoAooUUKBRQoCiigKKKBRQFFFFKKBRSgKKKCigKMoAAAAAAAAAACgABQKBQAUFAChQoAoUKAKKFFCgUUKAoooCilAUUBRRRSlAUUoClFAooFMoAAAAAAAAAAAoAAoCgUAFBQAoUKAKFFACihRRQFFFAKKKBRRQFFAUUUUpQFKKBRRQKKAyoAAAAAAAAAABQAAoCgoAFBQAoUKAKKFAFCihRQFFFAUKKBRRQFFAUUUopQKKKBRRQKKDKgAAAAAAAAAABQAAoFAoAFBQAoUUAUKFAFCihRQFKFAUUKBRRQKKAUUopRQKKKBRRQKUMqAAAAAAAAAAABQAAoFAoAKCgBQoUAUKFAFFCihQFKFAUUUBRRQKKAooopRQKKUBRRQUUyoAAAAAAAAAAABQAAoFAoAKCgBQoUAUKFAFFCihQKKFAUUUBRSgKKAooopSgKKUBSigUMsAAAAAAAAAAAAFAAFAUCgAoKAFChQBQooAoUKKKAoooBRRQKKKAooCiiilKApRQKKKBTLAAAAAAAAAAAAAoAAUBQUACgoAUKFAKFCgChRQooCiigKFFAoooCigKKKUUoFFFAoooFywAAAAAAAAAAAACgABQKBQAKCgBQooAoUKAKFFCigKKKAooUCiigUKBQpRSigUUUCiigy4AAAAAAAAAAAAAoAAUCgUAFBQAoKKAKFCgCihRQoFFCgKKKAoooFFAUUUUooFFKAoooy4AAAAAAAAAAAAAKAAFAoFABQUAKFCgChQoAooUUKBRQoCiigKKUBRQFFFFKUBRSgKUUy4AAAAAAAAAAAAACgACgKBQAUFAChQoAoUUAKKFFFAUUUAoooFFFAUUBRRRSlAUooFFDMAAAAAAAAAAAAAAFAACgKCgAUFAChQoAooUAUKKFFAUUUBQooFFFAUUBRRSilAoooFFMwAAAAAAAAAAAAAAFAACgUCgAUFAChRQBQoUAUKKFFAUoUBRQoFFFAooBRSilFAoooFFzAAAAAAAAAAAAAAAFAACgUCgAoKAFBRQBQoUAUUKKFAooUBRRQFFFAooCiiilFAopQFMyAAAAAAAAAAAAAAAUAAKBQKACgoAUKFAFChQBRQooUCihQFFFAUooCigKKKKUoCilAXMgAAAAAAAAAAAAAABQABQFAoAKCgBQoUAUKKAFFCiigKKKAUUUCiigKKAooopSgKUUDNAAAAAAAAAAAAAAAAoAAUBQUACgoAUKFAFFCgChRQooCiigKFFAoooCigKKKUUoFFFDNAAAAAAAAAAAAAAAAKAAFAoFAAoKAFCigChQoAoUUKKAoooCihQKKKBQoFClFKKBRRTNAAAAAAAAAAAAAAAACgABQKBQAUFACgooAoUKAKKFFCgUUKAoooCiigUUBRRRSigUUrNAAAAAAAAAAAAAAAAAoAAUCgUAFBQAoUKAKFCgCihRQoFFCgKKKAopQFFAUUUUpQFFM2AAAAAAAAAAAAAAAAAoAAoCgUAFBQAoUKAKFFACihRRQFFFAKKKBRRQFFAUUUUpQFKzYAAAAAAAAAAAAAAAABQAAoCgoAFBQAoUKAKKFAFCihRQFFFAUKKBRRQFFAUUUopQKM4AAAAAAAAAAAAAAAAAFAACgUCgAUFAChRQBQoUAUKKFFAUoUBRQoFFFAooChSilFAr/8QAGAEBAQEBAQAAAAAAAAAAAAAAAAEEAwX/2gAIAQIQAAAA9+AAEAQAAQAEAACACAAAAEAAAAAAAAB3qAAIAgAAQAEAAEACAAAAEAAAAAAAAGiLAACAIAAIABAABAAgAAABAAAAAAAAGgiwAAgCAACAAQAAQAIAAAAQAAAAAAAGgRUAAIAgAAgAIAAEAEAAAAIAAAAAAAGgEVAACAIAAIACAABABAAAACAAAAAAAGgBFQABAEAACAAgAAgAQAAAAgAAAAAAGlAEWAAEAQAAQACAACABAAAACAAAAAABpEARYAAQBAABAAIAAIAEAAAAIAAAAAAaQQCKgABAEAAEABAAAgAgAAABAAAAAAGkBAIqAAEAQAAQAEAACACAAAAEAAAAABpAEAioAAgCAABAAQAAQAIAAAAQAAAAAaQAgCLAACAIAAIABAABAAgAAABAAAAAGkACAIsAAIAgAAgAEAAEACAAAAEAAAABpAAIBFQAAgCAACAAgAAQAQAAAAgAAAAakAAIBFQAAgCAACAAgAAQAQAAAAgAAABqEAAIBFQABAEAACAAgAAgAQAAAAgAAAGoEAAQBFgABAEAAEAAgAAgAQAAAAgAAAagEAAQBFgABAEAAEAAgAAgAQAAAAgAABrgCAAEAioAAQBAABAAQAAIAIAAAAQAABqWAIAAQCKgABAEAAEABAAAgAgAAABAAAa4WAIAAQCKgACAIAAEABAABAAgAAABAABrIWAIAAgCLAACAIAAIABAABAAgAAABAAGsIqAIAAgCLAACAIAAIABAABAAgAAABAAawIsAQAAgEVAACAIAAIACAABABAAAACABrAQsAQAAgEVAACAIAAIACAABABAAAACAGsAQsAQAAgEVAAEAQAAIACAACABAAAACAawAQsAQABAEWAAEAQAAQACAACABAAAACBrAARUAQABAEWAAEAQAAQACAACACAAAACGsAARYAgABAIqAAEAQAAQAEAACACAAAAEbEAAIWAIAAQCKgABAEAAEABAAAgAgAAABrEAAIWAIAAQCKgACAIAAEABAABAAgAAAGsIAAIWAIAAgCLAACAIAAIABAABAAgAAAawIAAIqAIAAgCLAACAIAAIABAABABAAABsgCAACLAEAAIBFQAAgCAACAAgAAQAQAABrqAIAAQsAQAAgEVAACAIAAIACAABABAAAbIqAIAAQsAQAAgEVAAEAQAAIACAACABAABsQqAQAAQsAQABAEWAAEAQAAQACAACABAAGwRUAQAARUAQABAEWAAEAQAAQACAACACAAbARUAQAARYAgABAIqAAEAQAAQAEAACACABsARUAQAAhYAgABAIqAAEAQAAQAEAACACAGwARUAQAAhYAgABAIqAAIAgAAQAEAAEACAbAAhUAgAAhYAgACAIsAAIAgAAgAEAAEACBsAAioAgAAioAgACAIsAAIAgAAgAEAAEAEG1AAIqAIAAIsAQAAgEVAACAIAAIACAABABG0gACKgCAAELAEAAIBFQAAgCAACAAgAAQAbAgACKgCAAELAEAAIBFQABAEAACAAgAAgBsAgAEKgEAAELAEAAQBFgABAEAAEAAgAAgGwAgAEVAEAAEVAEAAQBFgABAEAAEAAgAAgbAAgAEVAEAAEWAIAAQCKgABAEAAEABAAAhsABAAEVAEAAIWAIAAQCKgACAEAAEABAAAmwABAAEVAEAAIWAIAAQCKgACAIAAEABAABsQABAAIVAIAAIWAIAAgCLAACAIAAIABAAGwgABAAIqAIAAIqAIAAgCLAACAIAAIABAAbAgABAAIqAIAAIsAQAAgEVAACAIAAIACABsAgACAAIqAIAAQsAQAAgEVAAEAIAAIACAGwAgACAAIqAIAAQsAQAAgEVAAEAQAAIACAbAAgACAAQqAQAAQsAQABAEWAAEAQAAQACBsABAACAARUAQAARUAQABAEWAAEAQAAQACGwABAACAARUAQAARYAgABAIqAAEAQAAQAEbAABAAEAARUAQAAhYAgABAIqAAIAQAAQAGsAAEAAQABFQBAACFgCAAEAioAAgCAABABrAAAQABAAIVAIAAIWAIAAgCLAACAIAAIAawAACAAEAAioAgAAioAgACAIsAAIAgAAgGsAAAIAAQACKgCAACLAEAAIBFQAAgCAACBrAAAAgACAAIqAIAAQsAQAAgEVAAEAIAAIbEAAAAgACAAIqAIAAQsAQAAgEVAAEAQAAJsEAAAAgACAAQqAQAAQsAQABAEWAAEAQAAawQAAAEAAIABFQBAABFQBAAEARYAAQBAAGsCAAAAQAAgAEVAEAAEWAIAAQCKgABAEABrAIAAABAAEAARUAQAAhYAgABAIqAAIAQAawAgAAAEAAQABFQBAACFgCAAEAioAAgCAGsACAAAAQABAAIWAIAAIWAIAAgCLAACAIBrAAIAAACAAEAAioAgAAioAgACAIsAAIAgawABAAAAIAAQACKgCAACLAEAAIBFQAAgCGsAAEAAAAgACAAIqAIAAQsAQAAgEVAAEAJrAAAQAAACAAIAAioAgABCwBAACARUAAQBqAAAEAAAAgACAAQsAQAAQsAQABAEWAAEBqAAABAAAAQAAgAEVAEAAEVAEAAQBFgABBqAAAAgAAAEAAIABFQBAABFgCAAEAioAARqAAAAIAAABAAEAARUAQAAhYAgABAIqAAGkAAAAIAAABAAEAAhUAQAAhYAgABAIqAAaQAAAAIAAABAAEAAhYAgAAhYAgACAIsABpAAAAAIAAACAAEAAioAgAAioAgACAIsAGkAAAAAQAAACAAEAAioAgAAioBAACARUAaQAAAAAQAAACAAIAAioAgABCwBAACARUBpAAAAAAQAAACAAIABCoAgABCwBAACARUGkAAAAAAQAAACAAIABCwBAABCwBAAEARYaQAAAAAAQAAAEAAIABFQBAABFQBAAEARWgAAAAAACAAAAQAAgAEVAEAAEWAIAAQCLoAAAAAAAIAAABAAEAARUAQAAhYAgABAGgAAAAAAAIAAABAAEAAhUAQAAhYAgABAaAAAAAAAAIAAABAAEAAhYAgAAhYAgACBoAAAAAAAAIAAACAAEAAioAgAAioAgACGgAAAAAAAAQAAACAAEAAioAgAAiwBAACaAAAAAAAAAQAAACAAIAAioAgABCwBAAHcAAAAAAAABAAAAIAAgAEUgCAAELAEAB3AAAAAAAAAEAAAAgACAAQsAQAAQsAQAdwAAAAAAAAAQAAAEAAIABFQBAABFQBAHcAAAAAAAAACAAAAQAAgAEVAEAAEWAIB/8QAGQEBAQEBAQEAAAAAAAAAAAAAAAEEAgMF/9oACAEDEAAAAPiAAoCgAUAAqAdAAgoAKAAAAAAAAAAAAeIACgKABQACoC0AEFABQAAAAAAAAAAAPEAAoCgAKAAVAWgAgoAUAAAAAAAAAAAHiAAFAUABQAFIC0AIFACgAAAAAAAAAADxAAAoCgAUAApAWgBAoAUAAAAAAAAAAB4gAAFAUACgAFQDoAEFABQAAAAAAAAAAeFAAAFAUACgAFQFoAIKACgAAAAAAAAADwUAAAUBQAFAAKgLQAQUAKAAAAAAAAAAeAoAAAoCgAKAApAWgBAoAUAAAAAAAAADwBQAABQFAAoABSAtACBQAoAAAAAAAAAeACgAACgKABQACoB0ACCgAoAAAAAAAAB4ACgAACgKABQACoC0AEFABQAAAAAAAAPAAKAAAKAoACgAFQFoAIKAFAAAAAAAABnUAKAAAKAoACgAKQFoAQKAFAAAAAAAAGcUAKAAAKAoAFAAKQFoAQKAFAAAAAAAAZwUAKAAAKAoAFAAKgHQAIKACgAAAAAAAzgKAFAAAFAUACgAFQFoAIKACgAAAAAADOAUAKAAAKAoACgAFQFoAIKAFAAAAAAAM4AUAKAAAKAoACgAKQFoAQKAFAAAAAAAzUAFACgAACgKABQACkBaAECgBQAAAAAAzFABQAoAAAoCgAUAAqAdAAgoAKAAAAAAZgoAKAFAAAFAUACgAFQFoAIKACgAAAAAZgKAFACgAACgKAAoABUBaACCgBQAAAAAZgCgBQAoAAAoCgAKAApAWgBAoAUAAAAAZgBQAUAKAAAKAoAFAAKQFoAQKAFAAAAAZgAUAFACgAACgKABQACoB0ACCgAoAAAAMwACgAoAUAAAUBQAKAAVAWgAgoAKAAAAMtAAKAFACgAACgKAAoABUBaACCgBQAAADKoAAoAUAKAAAKAoACgAKQFoAQKAFAAAAyigAFABQAoAAAoCgAUAApAWgBAoAUAAAMoKAAUAFACgAACgKABQACoB0ACCgAoAABlAUAAoAUAFAAAFAUACgAFQFoAIKACgAAZQBQACgBQAoAAAoCgAKAAVAWgAgoAUAAGUAKAAKAFACgAACgKAAoACkBaAECgBQABlAAoABQAUAKAAAKAoAFAAKQFoAQKAFAAZKAAoABQAUAKAAAKAoAFAAKgHQAIKACgAyKAAUAAoAUAFAAAFAUACgAFQFoAIKACgDIKAAUAAoAUAKAAAKAoACgAFQFoAIKAFAMgKAAoAAoAUAKAAAKAoACgAKQFoAQKAFAyAKAAoABQAUAKAAAKAoAFAAKQFoAQKAFDIAKAAoABQAUAKAAAKAoAFAAKgHQAIKACmQAKAAUAAoAUAFAAAFAUACgAFQFoAIKAC5AAKAAUAAoAUAKAAAKAoACgAFQFoAIKAGUAAoACgACgBQAoAAAoCgAKAApAWgBAoBkoAAoACgAFABQAoAAAoCgAUAApAWgBAoGQoAAoACgAFABQAoAAAoCgAUAAqAdAAgoMgUAAoABQACgBQAUAAAUBQAKAAVAWgAgoyAUAAoABQACgBQAoAAAoCgAKAAVAWgAgrIAoAAoACgACgBQAoAAAoCgAKAApAWgBAygCgACgAKAAUAFACgAACgKABQACkBaAEMoAKAAKAAoABQAUAKAAAKAoAFAAKgHQAJlAAUAAoABQACgBQAUAAAUBQAKAAVAWgBlQABQACgAFAAKAFACgAACgKAAoABUBaAZSAAKAAKAAoAAoAUAKAAAKAoACgAKQFoGUIAAoAAoACgAFABQAoAAAoCgAUAApAWhjtCAAKAAKAAoABQAUAKAAAKAoAFAAKgHQxloQABQACgAFAAKAFABQAABQFAAoABUBaxh0CAAKAAUAAoABQAoAUAAAUBQAFAAKgLkBaEAAUAAUABQABQAoAUAAAUBQAFAAUgZQFoQABQABQAFAAKACgBQAABQFAAoABSGUAWhAAFAAFAAUAAoAKAFAAAFAUACgAFRlABaEAAUAAoABQACgBQAUAAAUBQAKAAVkAAdAgACgAFAAKAAUAKAFAAAFAUABQADKAAWhAAFAAFAAUAAUAKAFAAAFAUABQAMoAAWhAAFAAFAAUAAoAKAFAAAFAUACgAygAAWhAAFAAFAAUAAoAKAFAAAFAUACgDKAAAWhAAFAAKAAUAAoAUAFAAAFAUACgMoAAAdAgACgAFAAKAAUAKAFAAAFAUABQZFAAAFoQABQABQAFAAFACgBQAABQFAAUZCgAABaEAAUAAUABQACgAoAUAAAUBQAKZAoAAAWhAAFAAFAAUAAoAKAFAAAFAUABlAoAAAWhAAFAAKAAUAAoAUAFAAAFAUAGUAoAAAdAgACgAFAAKAAUAKAFAAAFAUAMoAUAAAWhAAFAAFAAUAAUAKAFAAAFAUAygAoAAAWhAAFAAFAAUAAoAKAFAAAFAUDKAAoAAAWhAAFAAFAAUAAoAKAFAAAFAUMoAAoAAAWhAAFAAKAAUAAoAUAFAAAFAUygAAoAAAdAgACgAFAAKAAUAKAFAAAFAVlAAAUAAAWhAAFAAFAAUAAUAKAFAAAFAZgAACgAABaEAAUAAUABQACgAoAUAAAUGYAAAKAAAFoQABQABQAFAAKACgBQAABRmAAAAoAAAWhAAFAAKAAUAAoAUAFAAAFZgAAACgAAB0CAAKAAUAAoABQAoAUAAAM4AAAAUAAAWhAAFAAFAAUAAUAKAFAAAM4AAAAKAAAFoQABQABQAFAAKACgBQAAM4AAAACgAABaEAAUAAUABQACgAoAUAAM4AAAAAoAAAWhAAFAAKAAUAAoAUAFAAM4AAAAAKAAAHQIAAoABQACgAFACgBQAGcAAAAABQAABaEAAUAAUABQABQAoAUAGcAAAAAAoAAAWhAAFAAFAAUAAoAKAFAGcAAAAAAKAAAFoQABQABQAFAAKACgBQGcAAAAAACgAABaEAAUAAoABQACgBQAUGcAAAAAAAoAAAdAgACgAFAAKAAUAKAFDOAAAAAAAFAAAFoQABQABQAFAAFACgBTOAAAAAAACgAABaEAAUAAUABQACgAoAXOAAAAAAAAoAAAWhAAFAAFAAUAAoAKAPAAAAAAAAAUAAALQgACgAFAAKAAUAKAeAAAAAAAAAKAAAHQIAAoABQACgAFACgeAAAAAAAAACgAAC0IAAoAAoACgACgBQ8AAAAAAAAABQAABaEAAUAAUABQACgAp//EABoQAQEBAQEBAQAAAAAAAAAAABGAkHCgMND/2gAIAQEAAT8A/EQWQn0kvkHZCfSS+QdkJ3FchHcVkJkJ3FchHcVkJkJ3FchHcVkJkJ3FchHcVkJkJ3FchHcVkJkJ3FchHnboUyE87eDvO3QpyEeduhTITzt4O7iuQjzt0KZCZCeduhTkI87ZCbIZCZCeduhTkI87dCmQmQnnboU5CPO3QpkJkJ526FMhN+shNkMhN+tkOQjfrITZDITfrZDkI36yE2QyE362Q368Hb9ZCbIZCfr/AP/EABQRAQAAAAAAAAAAAAAAAAAAAND/2gAIAQIBAT8AegP/xAAYEQEBAQEBAAAAAAAAAAAAAAARcIAgYP/aAAgBAwEBPwCtMiZEyJyGyJkTInIbImRMichsiZEyJyGyJkTInIbImRMichsiZEyJyGyJkTInIbImRMichsiZEyJyGyJkTIntkTGmRPbImRMichsiZEyJyGyJkTInIbImRMichsiZEyJyGyJkTInIbImRMichsiZEyJyGyJ8h/9k=&quot;,&quot;width&quot;:&quot;2560&quot;,&quot;height&quot;:&quot;1600&quot;,&quot;x&quot;:0,&quot;y&quot;:0}" math="0" shadow="1">
      <root>
        <mxCell id="0" />
        <mxCell id="1" parent="0" />
        <mxCell id="oY8VKGuxEVDIsXwNaBju-4" value="&lt;b&gt;DEMO25Q2&lt;/b&gt;" style="swimlane;fontStyle=0;childLayout=stackLayout;horizontal=1;startSize=26;fillColor=#1ba1e2;horizontalStack=0;resizeParent=1;resizeParentMax=0;resizeLast=0;collapsible=1;marginBottom=0;html=1;fontColor=#ffffff;strokeColor=#006EAF;" vertex="1" parent="1">
          <mxGeometry x="500" y="259" width="160" height="78" as="geometry" />
        </mxCell>
        <mxCell id="oY8VKGuxEVDIsXwNaBju-5" value="&lt;b&gt;&lt;font style=&quot;color: light-dark(rgb(0, 255, 0), rgb(51, 245, 25)); font-size: 14px;&quot;&gt;primaryid &lt;/font&gt;&lt;font style=&quot;color: light-dark(rgb(0, 255, 0), rgb(51, 245, 25));&quot;&gt;(pk)&lt;/font&gt;&lt;/b&gt;" style="text;strokeColor=none;fillColor=none;align=center;verticalAlign=top;spacingLeft=4;spacingRight=4;overflow=hidden;rotatable=0;points=[[0,0.5],[1,0.5]];portConstraint=eastwest;whiteSpace=wrap;html=1;" vertex="1" parent="oY8VKGuxEVDIsXwNaBju-4">
          <mxGeometry y="26" width="160" height="26" as="geometry" />
        </mxCell>
        <mxCell id="oY8VKGuxEVDIsXwNaBju-6" value="&lt;font style=&quot;color: light-dark(rgb(0, 255, 0), rgb(51, 245, 25));&quot;&gt;&lt;b style=&quot;&quot;&gt;&lt;span style=&quot;font-size: 14px;&quot;&gt;caseid &lt;/span&gt;&lt;font&gt;(pk)&lt;/font&gt;&lt;/b&gt;&lt;/font&gt;" style="text;strokeColor=none;fillColor=none;align=center;verticalAlign=top;spacingLeft=4;spacingRight=4;overflow=hidden;rotatable=0;points=[[0,0.5],[1,0.5]];portConstraint=eastwest;whiteSpace=wrap;html=1;" vertex="1" parent="oY8VKGuxEVDIsXwNaBju-4">
          <mxGeometry y="52" width="160" height="26" as="geometry" />
        </mxCell>
        <mxCell id="oY8VKGuxEVDIsXwNaBju-8" value="&lt;b&gt;REAC25Q2&lt;/b&gt;" style="swimlane;fontStyle=0;childLayout=stackLayout;horizontal=1;startSize=26;fillColor=#1ba1e2;horizontalStack=0;resizeParent=1;resizeParentMax=0;resizeLast=0;collapsible=1;marginBottom=0;html=1;fontColor=#ffffff;strokeColor=#006EAF;" vertex="1" parent="1">
          <mxGeometry x="740" y="99" width="160" height="78" as="geometry" />
        </mxCell>
        <mxCell id="oY8VKGuxEVDIsXwNaBju-9" value="&lt;font style=&quot;color: light-dark(rgb(255, 181, 112), rgb(255, 181, 112));&quot;&gt;&lt;b style=&quot;&quot;&gt;&lt;span style=&quot;font-size: 14px;&quot;&gt;primaryid &lt;/span&gt;&lt;font style=&quot;&quot;&gt;(fk)&lt;/font&gt;&lt;/b&gt;&lt;/font&gt;" style="text;strokeColor=none;fillColor=none;align=center;verticalAlign=top;spacingLeft=4;spacingRight=4;overflow=hidden;rotatable=0;points=[[0,0.5],[1,0.5]];portConstraint=eastwest;whiteSpace=wrap;html=1;" vertex="1" parent="oY8VKGuxEVDIsXwNaBju-8">
          <mxGeometry y="26" width="160" height="26" as="geometry" />
        </mxCell>
        <mxCell id="oY8VKGuxEVDIsXwNaBju-10" value="&lt;b&gt;&lt;font style=&quot;font-size: 14px; color: light-dark(rgb(255, 181, 112), rgb(255, 181, 112));&quot;&gt;caseid &lt;/font&gt;&lt;font style=&quot;color: light-dark(rgb(255, 181, 112), rgb(255, 181, 112));&quot;&gt;(fk)&lt;/font&gt;&lt;/b&gt;" style="text;strokeColor=none;fillColor=none;align=center;verticalAlign=top;spacingLeft=4;spacingRight=4;overflow=hidden;rotatable=0;points=[[0,0.5],[1,0.5]];portConstraint=eastwest;whiteSpace=wrap;html=1;" vertex="1" parent="oY8VKGuxEVDIsXwNaBju-8">
          <mxGeometry y="52" width="160" height="26" as="geometry" />
        </mxCell>
        <mxCell id="oY8VKGuxEVDIsXwNaBju-12" value="&lt;b&gt;THER252Q&lt;/b&gt;" style="swimlane;fontStyle=0;childLayout=stackLayout;horizontal=1;startSize=26;fillColor=#1ba1e2;horizontalStack=0;resizeParent=1;resizeParentMax=0;resizeLast=0;collapsible=1;marginBottom=0;html=1;fontColor=#ffffff;strokeColor=#006EAF;" vertex="1" parent="1">
          <mxGeometry x="90" y="259" width="140" height="78" as="geometry" />
        </mxCell>
        <mxCell id="oY8VKGuxEVDIsXwNaBju-13" value="&lt;font style=&quot;color: light-dark(rgb(255, 181, 112), rgb(255, 181, 112));&quot;&gt;&lt;b style=&quot;&quot;&gt;&lt;span style=&quot;font-size: 14px;&quot;&gt;primaryid &lt;/span&gt;&lt;font style=&quot;&quot;&gt;(fk)&lt;/font&gt;&lt;/b&gt;&lt;/font&gt;" style="text;strokeColor=none;fillColor=none;align=center;verticalAlign=top;spacingLeft=4;spacingRight=4;overflow=hidden;rotatable=0;points=[[0,0.5],[1,0.5]];portConstraint=eastwest;whiteSpace=wrap;html=1;" vertex="1" parent="oY8VKGuxEVDIsXwNaBju-12">
          <mxGeometry y="26" width="140" height="26" as="geometry" />
        </mxCell>
        <mxCell id="oY8VKGuxEVDIsXwNaBju-14" value="&lt;b&gt;&lt;font style=&quot;font-size: 14px; color: light-dark(rgb(255, 181, 112), rgb(255, 181, 112));&quot;&gt;caseid &lt;/font&gt;&lt;font style=&quot;color: light-dark(rgb(255, 181, 112), rgb(255, 181, 112));&quot;&gt;(fk)&lt;/font&gt;&lt;/b&gt;" style="text;strokeColor=none;fillColor=none;align=center;verticalAlign=top;spacingLeft=4;spacingRight=4;overflow=hidden;rotatable=0;points=[[0,0.5],[1,0.5]];portConstraint=eastwest;whiteSpace=wrap;html=1;" vertex="1" parent="oY8VKGuxEVDIsXwNaBju-12">
          <mxGeometry y="52" width="140" height="26" as="geometry" />
        </mxCell>
        <mxCell id="oY8VKGuxEVDIsXwNaBju-16" value="&lt;b&gt;RPSR252Q&lt;/b&gt;" style="swimlane;fontStyle=0;childLayout=stackLayout;horizontal=1;startSize=26;fillColor=#1ba1e2;horizontalStack=0;resizeParent=1;resizeParentMax=0;resizeLast=0;collapsible=1;marginBottom=0;html=1;fontColor=#ffffff;strokeColor=#006EAF;" vertex="1" parent="1">
          <mxGeometry x="260" y="419" width="160" height="78" as="geometry" />
        </mxCell>
        <mxCell id="oY8VKGuxEVDIsXwNaBju-17" value="&lt;b&gt;&lt;font style=&quot;color: rgb(255, 181, 112);&quot;&gt;&lt;font style=&quot;font-size: 14px;&quot;&gt;primaryid &lt;/font&gt;&lt;font style=&quot;&quot;&gt;(fk)&lt;/font&gt;&lt;/font&gt;&lt;/b&gt;" style="text;strokeColor=none;fillColor=none;align=center;verticalAlign=top;spacingLeft=4;spacingRight=4;overflow=hidden;rotatable=0;points=[[0,0.5],[1,0.5]];portConstraint=eastwest;whiteSpace=wrap;html=1;" vertex="1" parent="oY8VKGuxEVDIsXwNaBju-16">
          <mxGeometry y="26" width="160" height="26" as="geometry" />
        </mxCell>
        <mxCell id="oY8VKGuxEVDIsXwNaBju-18" value="&lt;font style=&quot;font-size: 14px; color: light-dark(rgb(255, 181, 112), rgb(255, 181, 112));&quot;&gt;&lt;b&gt;caseid (fk)&lt;/b&gt;&lt;/font&gt;" style="text;strokeColor=none;fillColor=none;align=center;verticalAlign=top;spacingLeft=4;spacingRight=4;overflow=hidden;rotatable=0;points=[[0,0.5],[1,0.5]];portConstraint=eastwest;whiteSpace=wrap;html=1;" vertex="1" parent="oY8VKGuxEVDIsXwNaBju-16">
          <mxGeometry y="52" width="160" height="26" as="geometry" />
        </mxCell>
        <mxCell id="oY8VKGuxEVDIsXwNaBju-20" value="&lt;b&gt;DRUG252Q&lt;/b&gt;" style="swimlane;fontStyle=0;childLayout=stackLayout;horizontal=1;startSize=26;fillColor=#1ba1e2;horizontalStack=0;resizeParent=1;resizeParentMax=0;resizeLast=0;collapsible=1;marginBottom=0;html=1;fontColor=#ffffff;strokeColor=#006EAF;" vertex="1" parent="1">
          <mxGeometry x="260" y="99" width="160" height="78" as="geometry" />
        </mxCell>
        <mxCell id="oY8VKGuxEVDIsXwNaBju-21" value="&lt;font style=&quot;color: light-dark(rgb(255, 181, 112), rgb(255, 181, 112));&quot;&gt;&lt;b style=&quot;&quot;&gt;&lt;span style=&quot;font-size: 14px;&quot;&gt;primaryid &lt;/span&gt;&lt;font style=&quot;&quot;&gt;(fk)&lt;/font&gt;&lt;/b&gt;&lt;/font&gt;" style="text;strokeColor=none;fillColor=none;align=center;verticalAlign=top;spacingLeft=4;spacingRight=4;overflow=hidden;rotatable=0;points=[[0,0.5],[1,0.5]];portConstraint=eastwest;whiteSpace=wrap;html=1;" vertex="1" parent="oY8VKGuxEVDIsXwNaBju-20">
          <mxGeometry y="26" width="160" height="26" as="geometry" />
        </mxCell>
        <mxCell id="oY8VKGuxEVDIsXwNaBju-22" value="&lt;b&gt;&lt;font style=&quot;font-size: 14px; color: rgb(255, 181, 112);&quot;&gt;caseid &lt;/font&gt;&lt;font style=&quot;color: rgb(255, 181, 112);&quot;&gt;(fk)&lt;/font&gt;&lt;/b&gt;" style="text;strokeColor=none;fillColor=none;align=center;verticalAlign=top;spacingLeft=4;spacingRight=4;overflow=hidden;rotatable=0;points=[[0,0.5],[1,0.5]];portConstraint=eastwest;whiteSpace=wrap;html=1;" vertex="1" parent="oY8VKGuxEVDIsXwNaBju-20">
          <mxGeometry y="52" width="160" height="26" as="geometry" />
        </mxCell>
        <mxCell id="oY8VKGuxEVDIsXwNaBju-24" value="&lt;b&gt;INDI25Q2&lt;/b&gt;" style="swimlane;fontStyle=0;childLayout=stackLayout;horizontal=1;startSize=26;fillColor=#1ba1e2;horizontalStack=0;resizeParent=1;resizeParentMax=0;resizeLast=0;collapsible=1;marginBottom=0;html=1;fontColor=#ffffff;strokeColor=#006EAF;" vertex="1" parent="1">
          <mxGeometry x="900" y="259" width="140" height="78" as="geometry" />
        </mxCell>
        <mxCell id="oY8VKGuxEVDIsXwNaBju-25" value="&lt;font style=&quot;color: light-dark(rgb(255, 181, 112), rgb(255, 181, 112));&quot;&gt;&lt;b style=&quot;&quot;&gt;&lt;span style=&quot;font-size: 14px;&quot;&gt;primaryid &lt;/span&gt;&lt;font style=&quot;&quot;&gt;(fk)&lt;/font&gt;&lt;/b&gt;&lt;/font&gt;" style="text;strokeColor=none;fillColor=none;align=center;verticalAlign=top;spacingLeft=4;spacingRight=4;overflow=hidden;rotatable=0;points=[[0,0.5],[1,0.5]];portConstraint=eastwest;whiteSpace=wrap;html=1;" vertex="1" parent="oY8VKGuxEVDIsXwNaBju-24">
          <mxGeometry y="26" width="140" height="26" as="geometry" />
        </mxCell>
        <mxCell id="oY8VKGuxEVDIsXwNaBju-26" value="&lt;b&gt;&lt;font style=&quot;font-size: 14px; color: light-dark(rgb(255, 181, 112), rgb(255, 181, 112));&quot;&gt;caseid&lt;/font&gt;&lt;font style=&quot;color: light-dark(rgb(255, 181, 112), rgb(255, 181, 112));&quot;&gt; (fk)&lt;/font&gt;&lt;/b&gt;" style="text;strokeColor=none;fillColor=none;align=center;verticalAlign=top;spacingLeft=4;spacingRight=4;overflow=hidden;rotatable=0;points=[[0,0.5],[1,0.5]];portConstraint=eastwest;whiteSpace=wrap;html=1;" vertex="1" parent="oY8VKGuxEVDIsXwNaBju-24">
          <mxGeometry y="52" width="140" height="26" as="geometry" />
        </mxCell>
        <mxCell id="oY8VKGuxEVDIsXwNaBju-28" value="&lt;b&gt;OUTC25Q2&lt;/b&gt;" style="swimlane;fontStyle=0;childLayout=stackLayout;horizontal=1;startSize=26;fillColor=#1ba1e2;horizontalStack=0;resizeParent=1;resizeParentMax=0;resizeLast=0;collapsible=1;marginBottom=0;html=1;fontColor=#ffffff;strokeColor=#006EAF;" vertex="1" parent="1">
          <mxGeometry x="740" y="419" width="160" height="78" as="geometry" />
        </mxCell>
        <mxCell id="oY8VKGuxEVDIsXwNaBju-29" value="&lt;b&gt;&lt;font style=&quot;color: rgb(255, 181, 112);&quot;&gt;&lt;font style=&quot;font-size: 14px;&quot;&gt;primaryid&lt;/font&gt;&lt;font style=&quot;&quot;&gt; (fk)&lt;/font&gt;&lt;/font&gt;&lt;/b&gt;" style="text;strokeColor=none;fillColor=none;align=center;verticalAlign=top;spacingLeft=4;spacingRight=4;overflow=hidden;rotatable=0;points=[[0,0.5],[1,0.5]];portConstraint=eastwest;whiteSpace=wrap;html=1;" vertex="1" parent="oY8VKGuxEVDIsXwNaBju-28">
          <mxGeometry y="26" width="160" height="26" as="geometry" />
        </mxCell>
        <mxCell id="oY8VKGuxEVDIsXwNaBju-30" value="&lt;font style=&quot;color: light-dark(rgb(255, 181, 112), rgb(255, 181, 112));&quot;&gt;&lt;b style=&quot;&quot;&gt;&lt;span style=&quot;font-size: 14px;&quot;&gt;caseid &lt;/span&gt;&lt;font&gt;(fk)&lt;/font&gt;&lt;/b&gt;&lt;/font&gt;" style="text;strokeColor=none;fillColor=none;align=center;verticalAlign=top;spacingLeft=4;spacingRight=4;overflow=hidden;rotatable=0;points=[[0,0.5],[1,0.5]];portConstraint=eastwest;whiteSpace=wrap;html=1;" vertex="1" parent="oY8VKGuxEVDIsXwNaBju-28">
          <mxGeometry y="52" width="160" height="26" as="geometry" />
        </mxCell>
        <mxCell id="oY8VKGuxEVDIsXwNaBju-33" value="" style="edgeStyle=entityRelationEdgeStyle;fontSize=12;html=1;endArrow=ERoneToMany;rounded=0;exitX=0;exitY=0;exitDx=0;exitDy=0;entryX=0.985;entryY=-0.031;entryDx=0;entryDy=0;entryPerimeter=0;" edge="1" parent="1" source="oY8VKGuxEVDIsXwNaBju-4" target="oY8VKGuxEVDIsXwNaBju-22">
          <mxGeometry width="100" height="100" relative="1" as="geometry">
            <mxPoint x="715" y="149" as="sourcePoint" />
            <mxPoint x="480" y="149" as="targetPoint" />
            <Array as="points">
              <mxPoint x="780" y="290" />
              <mxPoint x="420" y="149" />
            </Array>
          </mxGeometry>
        </mxCell>
        <mxCell id="oY8VKGuxEVDIsXwNaBju-34" value="" style="edgeStyle=entityRelationEdgeStyle;fontSize=12;html=1;endArrow=ERoneToMany;rounded=0;entryX=1;entryY=0.5;entryDx=0;entryDy=0;exitX=0.01;exitY=0.985;exitDx=0;exitDy=0;exitPerimeter=0;" edge="1" parent="1" source="oY8VKGuxEVDIsXwNaBju-6" target="oY8VKGuxEVDIsXwNaBju-17">
          <mxGeometry width="100" height="100" relative="1" as="geometry">
            <mxPoint x="510" y="429" as="sourcePoint" />
            <mxPoint x="610" y="329" as="targetPoint" />
          </mxGeometry>
        </mxCell>
        <mxCell id="oY8VKGuxEVDIsXwNaBju-35" value="" style="edgeStyle=entityRelationEdgeStyle;fontSize=12;html=1;endArrow=ERoneToMany;rounded=0;entryX=0;entryY=0.5;entryDx=0;entryDy=0;exitX=1.01;exitY=1.138;exitDx=0;exitDy=0;exitPerimeter=0;" edge="1" parent="1" source="oY8VKGuxEVDIsXwNaBju-6" target="oY8VKGuxEVDIsXwNaBju-29">
          <mxGeometry width="100" height="100" relative="1" as="geometry">
            <mxPoint x="510" y="429" as="sourcePoint" />
            <mxPoint x="610" y="329" as="targetPoint" />
          </mxGeometry>
        </mxCell>
        <mxCell id="oY8VKGuxEVDIsXwNaBju-36" value="" style="edgeStyle=entityRelationEdgeStyle;fontSize=12;html=1;endArrow=ERoneToMany;rounded=0;entryX=0;entryY=0.5;entryDx=0;entryDy=0;exitX=1;exitY=0.5;exitDx=0;exitDy=0;" edge="1" parent="1" source="oY8VKGuxEVDIsXwNaBju-5">
          <mxGeometry width="100" height="100" relative="1" as="geometry">
            <mxPoint x="510" y="429" as="sourcePoint" />
            <mxPoint x="900" y="298" as="targetPoint" />
          </mxGeometry>
        </mxCell>
        <mxCell id="oY8VKGuxEVDIsXwNaBju-37" value="" style="edgeStyle=entityRelationEdgeStyle;fontSize=12;html=1;endArrow=ERoneToMany;rounded=0;exitX=1;exitY=0;exitDx=0;exitDy=0;entryX=0;entryY=0.5;entryDx=0;entryDy=0;" edge="1" parent="1" source="oY8VKGuxEVDIsXwNaBju-4" target="oY8VKGuxEVDIsXwNaBju-9">
          <mxGeometry width="100" height="100" relative="1" as="geometry">
            <mxPoint x="510" y="429" as="sourcePoint" />
            <mxPoint x="648" y="117" as="targetPoint" />
          </mxGeometry>
        </mxCell>
        <mxCell id="oY8VKGuxEVDIsXwNaBju-38" value="&lt;b&gt;&lt;font style=&quot;font-size: 19px;&quot;&gt;Entity Relationship Diagram of FAERS Q2-2025 Datasets&lt;/font&gt;&lt;/b&gt;" style="whiteSpace=wrap;html=1;align=center;fillColor=#ffcd28;strokeColor=#d79b00;gradientColor=#ffa500;fontColor=#CC00CC;" vertex="1" parent="1">
          <mxGeometry x="300" y="10" width="560" height="40" as="geometry" />
        </mxCell>
        <mxCell id="oY8VKGuxEVDIsXwNaBju-39" value="" style="edgeStyle=entityRelationEdgeStyle;fontSize=12;html=1;endArrow=ERoneToMany;rounded=0;entryX=1;entryY=0.5;entryDx=0;entryDy=0;exitX=0;exitY=0.5;exitDx=0;exitDy=0;" edge="1" parent="1" source="oY8VKGuxEVDIsXwNaBju-5" target="oY8VKGuxEVDIsXwNaBju-13">
          <mxGeometry width="100" height="100" relative="1" as="geometry">
            <mxPoint x="325" y="337" as="sourcePoint" />
            <mxPoint x="425" y="237" as="targetPoint" />
          </mxGeometry>
        </mxCell>
      </root>
    </mxGraphModel>
  </diagram>
</mxfile>
